# AST/ASF file generated using VICON BodyLanguage
# -----------------------------------------------
:version 1.10
:name VICON
:units
  mass 1.0
  length 0.45
  angle deg
:documentation
   .ast/.asf automatically generated from VICON data using
   VICON BodyBuilder and BodyLanguage model FoxedUp or BRILLIANT.MOD
:root
   order TX TY TZ RX RY RZ
   axis XYZ
   position 0 0 0  
   orientation 0 0 0 
:bonedata
  begin
     id 1 
     name lhipjoint
     direction 0.577973 -0.728611 0.367523 
     length 2.48544 
     axis 0 0 0  XYZ
  end
  begin
     id 2 
     name lfemur
     direction 0.34202 -0.939693 0  
     length 7.1921  
     axis 0 0 20  XYZ
    dof rx ry rz
    limits (-160.0 20.0)
           (-70.0 70.0)
           (-60.0 70.0)
  end
  begin
     id 3 
     name ltibia
     direction 0.34202 -0.939693 0   
     length 7.71059   
     axis 0 0 20   XYZ
    dof rx
    limits (-10.0 170.0)
  end
  begin
     id 4 
     name lfoot
     direction 0.089538 -0.246004 0.965124   
     length 2.19909   
     axis -90 7.62852e-016 20   XYZ
    dof rx rz
    limits (-45.0 90.0)
           (-70.0 20.0)
  end
  begin
     id 5 
     name ltoes
     direction 1.53544e-011 -4.21829e-011 1   
     length 1.10116   
     axis -90 7.62852e-016 20   XYZ
    dof rx
    limits (-90.0 20.0)
  end
  begin
     id 6 
     name rhipjoint
     direction -0.554414 -0.743062 0.374812   
     length 2.4371  
     axis 0 0 0  XYZ 
  end
  begin
     id 7 
     name rfemur
     direction -0.34202 -0.939693 0   
     length 7.47254   
     axis 0 0 -20   XYZ
    dof rx ry rz
    limits (-160.0 20.0)
           (-70.0 70.0)
           (-70.0 60.0)
  end
  begin
     id 8 
     name rtibia
     direction -0.34202 -0.939693 0   
     length 7.65855   
     axis 0 0 -20   XYZ
    dof rx
    limits (-10.0 170.0)
 end
 begin
     id 9 
     name rfoot
     direction -0.133779 -0.367555 0.92033   
     length 2.43006  
     axis -90 -7.62852e-016 -20   XYZ
    dof rx rz
    limits (-45.0 90.0)
           (-20.0 70.0)
  end
  begin
     id 10 
     name rtoes
     direction -1.53563e-011 -4.21889e-011 1   
     length 1.19625   
     axis -90 -7.62852e-016 -20   XYZ
    dof rx
    limits (-90.0 20.0)
  end
  begin
     id 11 
     name lowerback
     direction 0.0249066 0.998043 -0.0573585   
     length 2.08485   
     axis 0 0 0   XYZ
    dof rx ry rz
    limits (-20.0 45.0)
           (-30.0 30.0)
           (-30.0 30.0)
  end
  begin
     id 12 
     name upperback
     direction 0.0237884 0.999673 0.00943178   
     length 2.08515   
     axis 0 0 0   XYZ
    dof rx ry rz
    limits (-20.0 45.0)
           (-30.0 30.0)
           (-30.0 30.0)
  end
  begin
     id 13 
     name thorax
     direction 0.0106671 0.999301 0.0358174   
     length 2.09037   
     axis 0 0 0   XYZ
    dof rx ry rz
    limits (-20.0 45.0)
           (-30.0 30.0)
           (-30.0 30.0)
  end
  begin
     id 14 
     name lowerneck
     direction -0.0580016 0.987052 0.149546   
     length 1.84454   
     axis 0 0 0   XYZ
    dof rx ry rz
    limits (-20.0 45.0)
           (-30.0 30.0)
           (-30.0 30.0)
  end
  begin
     id 15 
     name upperneck
     direction 0.079456 0.981963 -0.171567   
     length 1.88141   
     axis 0 0 0   XYZ
    dof rx ry rz
    limits (-20.0 45.0)
           (-30.0 30.0)
           (-30.0 30.0)
  end
  begin
     id 16
     name head
     direction 0.0262167 0.9967 -0.0768276  
     length 1.89541  
     axis 0 0 0   XYZ
    dof rx ry rz
    limits (-20.0 45.0)
           (-30.0 30.0)
           (-30.0 30.0)
  end
  begin
     id 17 
     name lclavicle
     direction 0.946135 0.322134 -0.0325326  
     length 3.949  
     axis 0 0 0   XYZ
    dof ry rz
    limits (-20.0 10.0)
           (0.0 20.0)
  end
  begin
     id 18 
     name lhumerus
     direction 1 -4.48964e-011 1.94005e-028   
     length 5.10995   
     axis 180 -30 -90   XYZ
    dof rx ry rz
    limits (-60.0 90.0)
           (-90.0 90.0)
           (-90.0 90.0)
  end
  begin
     id 19
     name lradius
     direction 1 -4.48976e-011 2.87852e-027   
     length 3.21207   
     axis 180 -30 -90   XYZ
    dof rx
    limits (-10.0 170.0)
  end
  begin
     id 20
     name lwrist
     direction 1 -4.48963e-011 1.9975e-027   
     length 1.60604   
     axis 2.96054e-016 90 90   XYZ
    dof ry
    limits (-180.0 0.0)
 end
  begin
     id 21 
     name lhand
     direction 1 -4.48919e-011 4.00227e-027   
     length 0.63349   
     axis -2.5488e-015 90 90   XYZ
    dof rx rz
    limits (-90.0 90.0)
           (-45.0 45.0)
  end
  begin
     id 22 
     name lfingers
     direction 1 -4.49037e-011 7.9652e-027   
     length 0.510736   
     axis -5.0975e-015 90 90   XYZ
    dof rx
    limits (0.0 90.0)
  end
  begin
     id 23
     name lthumb
     direction 0.707107 -6.34922e-011 0.707107   
     length 0.733318   
     axis -90 45 -4.48553e-014   XYZ
    dof rx rz
    limits (-45.0 45.0)
           (-45.0 45.0)
  end
  begin
     id 24 
     name rclavicle
     direction -0.940085 0.328911 -0.0897654   
     length 3.93848  
     axis 0 0 0   XYZ 
    dof ry rz
    limits (-10.0 20.0)
           (-20.0 0.0)
  end
  begin
     id 25 
     name rhumerus
     direction -1 -4.48958e-011 3.02044e-027  
     length 5.25109   
     axis 180 30 90   XYZ
    dof rx ry rz
    limits (-90.0 60.0)
           (-90.0 90.0)
           (-90.0 90.0)
  end
  begin
     id 26 
     name rradius
     direction -1 -4.4897e-011 9.78352e-028   
     length 3.28364   
     axis 180 30 90   XYZ
    dof rx
    limits (-10.0 170.0)
  end
  begin
     id 27 
     name rwrist
     direction -1 -4.48943e-011 1.99918e-027   
     length 1.64182   
     axis 2.96054e-016 -90 -90   XYZ
    dof ry
    limits (-180.0 0.0)
  end
  begin
     id 28
     name rhand
     direction -1 -4.49024e-011 3.98478e-027   
     length 0.599745   
     axis -2.5488e-015 -90 -90   XYZ
    dof rx rz
    limits (-90.0 90.0)
           (-45.0 45.0)
  end
  begin
     id 29
     name rfingers
     direction -1 -4.48914e-011 8.00621e-027   
     length 0.48353   
     axis -5.0975e-015 -90 -90   XYZ
    dof rx
    limits (0.0 90.0)
  end
  begin
     id 30
     name rthumb
     direction -0.707107 -6.34992e-011 0.707107   
     length 0.694255   
     axis -90 -45 4.48553e-014   XYZ
    dof rx rz
    limits (-45.0 45.0)
           (-45.0 45.0)
  end
:hierarchy
  begin
    root lhipjoint rhipjoint lowerback
    lhipjoint lfemur
    lfemur ltibia
    ltibia lfoot
    lfoot ltoes
    rhipjoint rfemur
    rfemur rtibia
    rtibia rfoot
    rfoot rtoes
    lowerback upperback
    upperback thorax
    thorax lowerneck lclavicle rclavicle
    lowerneck upperneck
    upperneck head
    lclavicle lhumerus
    lhumerus lradius
    lradius lwrist
    lwrist lhand lthumb
    lhand lfingers
    rclavicle rhumerus
    rhumerus rradius
    rradius rwrist
    rwrist rhand rthumb
    rhand rfingers
  end

#!OML:ASF E:\CV Data\Top Level 1\Subject 1\Session 1\player.ASF
:FULLY-SPECIFIED
:DEGREES
282
root 13.7899 15.6196 -5.21198 -11.9344 -78.316 12.4813
lowerback -0.237219 -2.0781 -9.39098
upperback -6.79391 -3.41761 -1.71799
thorax -6.61763 -1.29152 3.6151
lowerneck -16.9378 10.6998 -4.80416
upperneck 31.4403 12.7188 12.382
head 11.832 6.62147 7.25372
rclavicle 7.95139e-016 -4.05521e-014
rhumerus -22.3536 47.3348 -96.4629
rradius 113.244
rwrist 18.8402
rhand -48.8124 42.605
rfingers 7.12502
rthumb -21.4489 13.7724
lclavicle 7.95139e-016 -4.05521e-014
lhumerus -32.4398 -49.9538 113.897
lradius 117.173
lwrist 0.4947
lhand -51.9553 21.6876
lfingers 7.12502
lthumb -24.4647 50.1452
rfemur -48.0134 -5.33456 18.3763
rtibia 62.7937
rfoot -14.526 -7.06176
rtoes 15.4004
lfemur 13.9492 5.38342 -23.0739
ltibia 29.7737
lfoot -28.2575 17.1717
ltoes -23.5442
283
root 13.6844 15.608 -5.21254 -12.011 -79.0691 12.2
lowerback -0.480034 -2.1473 -9.30335
upperback -6.88517 -3.48616 -1.64472
thorax -6.56622 -1.33071 3.63711
lowerneck -16.9212 10.843 -4.70735
upperneck 31.6883 12.8401 12.5207
head 11.9078 6.69357 7.32483
rclavicle -1.76918e-014 6.36111e-015
rhumerus -22.1253 47.2092 -96.066
rradius 113.589
rwrist 19.026
rhand -48.8225 42.6346
rfingers 7.12502
rthumb -21.4585 13.803
lclavicle -1.76918e-014 6.36111e-015
lhumerus -32.0245 -50.3898 113.752
lradius 117.239
lwrist -0.263663
lhand -51.9101 21.6536
lfingers 7.12502
lthumb -24.4213 50.1171
rfemur -47.4998 -4.94351 18.8176
rtibia 63.1409
rfoot -15.0243 -6.79518
rtoes 15.6106
lfemur 14.5707 5.67143 -22.6931
ltibia 30.163
lfoot -27.8269 16.7159
ltoes -24.8212
284
root 13.5743 15.5984 -5.21354 -12.1493 -79.8563 11.9603
lowerback -0.752556 -2.19513 -9.18598
upperback -6.95845 -3.52227 -1.59491
thorax -6.48492 -1.35833 3.6147
lowerneck -16.8716 10.9583 -4.59483
upperneck 31.8692 12.9283 12.6223
head 11.9593 6.74977 7.36736
rclavicle 2.90226e-014 1.43125e-014
rhumerus -21.9051 47.0506 -95.6917
rradius 113.925
rwrist 19.1938
rhand -48.8133 42.6789
rfingers 7.12502
rthumb -21.4497 13.8464
lclavicle 2.90226e-014 1.43125e-014
lhumerus -31.6336 -50.8385 113.616
lradius 117.298
lwrist -0.998584
lhand -51.8031 21.635
lfingers 7.12502
lthumb -24.3187 50.1123
rfemur -46.9232 -4.52619 19.2546
rtibia 63.464
rfoot -15.5428 -6.5291
rtoes 15.7924
lfemur 15.201 5.97402 -22.2976
ltibia 30.6079
lfoot -27.3261 16.1515
ltoes -26.1171
285
root 13.4599 15.5902 -5.21516 -12.3558 -80.6709 11.7667
lowerback -1.03448 -2.23057 -9.06024
upperback -7.02507 -3.54126 -1.55204
thorax -6.39412 -1.37885 3.57899
lowerneck -16.7578 11.0691 -4.57231
upperneck 31.9945 13.0216 12.7752
head 11.9617 6.80752 7.4299
rclavicle 4.87022e-014 2.94201e-014
rhumerus -21.7107 46.878 -95.3351
rradius 114.263
rwrist 19.3582
rhand -48.7564 42.6731
rfingers 7.12502
rthumb -21.3951 13.8344
lclavicle 4.87022e-014 2.94201e-014
lhumerus -31.2824 -51.268 113.515
lradius 117.341
lwrist -1.69966
lhand -51.7393 21.5751
lfingers 7.12502
lthumb -24.2576 50.0606
rfemur -46.2861 -4.08773 19.6837
rtibia 63.7625
rfoot -16.0724 -6.26726
rtoes 15.961
lfemur 15.8304 6.26496 -21.8962
ltibia 31.1221
lfoot -26.7469 15.495
ltoes -27.4363
286
root 13.3415 15.5831 -5.21762 -12.5468 -81.5071 11.5462
lowerback -1.32354 -2.26065 -8.93253
upperback -7.09408 -3.55307 -1.50202
thorax -6.30258 -1.39571 3.54904
lowerneck -16.6166 11.1734 -4.53523
upperneck 32.1014 13.1132 12.8874
head 11.9566 6.86072 7.47068
rclavicle -1.63003e-014 -4.13472e-014
rhumerus -21.5553 46.727 -94.9922
rradius 114.605
rwrist 19.4951
rhand -48.7437 42.6724
rfingers 7.12502
rthumb -21.3829 13.8322
lclavicle -1.63003e-014 -4.13472e-014
lhumerus -30.9653 -51.6581 113.444
lradius 117.374
lwrist -2.35354
lhand -51.6558 21.451
lfingers 7.12502
lthumb -24.1775 49.9471
rfemur -45.6015 -3.63352 20.1221
rtibia 64.0311
rfoot -16.5955 -6.02117
rtoes 16.0869
lfemur 16.4359 6.53474 -21.4767
ltibia 31.7204
lfoot -26.0766 14.76
ltoes -28.8043
287
root 13.2195 15.578 -5.221 -12.7251 -82.3481 11.3032
lowerback -1.61421 -2.29834 -8.82281
upperback -7.16621 -3.57514 -1.42992
thorax -6.21043 -1.4158 3.55224
lowerneck -16.4752 11.2874 -4.51834
upperneck 32.2294 13.2245 13.0013
head 11.9553 6.91973 7.51875
rclavicle -5.12864e-014 -3.97569e-014
rhumerus -21.4235 46.6356 -94.6509
rradius 114.941
rwrist 19.5841
rhand -48.7837 42.727
rfingers 7.12502
rthumb -21.4212 13.8912
lclavicle -5.12864e-014 -3.97569e-014
lhumerus -30.6617 -51.9848 113.398
lradius 117.388
lwrist -2.96057
lhand -51.6108 21.2117
lfingers 7.12502
lthumb -24.1344 49.7136
rfemur -44.8657 -3.17501 20.562
rtibia 64.2623
rfoot -17.1108 -5.79805
rtoes 16.1596
lfemur 17.0011 6.77635 -21.0371
ltibia 32.4129
lfoot -25.3392 13.8616
ltoes -30.0692
